Patient4_TMGait_0pt4_01_left_30_EMG.mot
version=1
nRows=19
nColumns=33
inDegrees=no
endheader
time	1LAddLong	2LGlutMax	3LGlutMed	4LIliopsoas	5LSemiMemb	6LBicFemLong	7LRecFem	8LVastMed	9LVastLat	10LGasMed	11LTibAnt	12lTibPost	13LPeroneusLong	14LSol	15LExtDigLong	16LFlexDigLong	17RAddLong	18RGlutMax	19RGlutMed	20RIliopsoas	21RSemiMemb	22RBicFemLong	23RRecFem	24RVastMed	25RVastLat	26RGasMed	27RTibAnt	28RTibPost	29RPeroneusLong	30RSol	31RExtDigLong	32RFlexDigLong
38.123	0.012817	0.37323	-0.074921	-0.002899	-0.00946	0.011597	0.029755	0.002441	0.1619	-0.019226	0.011292	0.00351	0.001678	-0.055237	0.009308	-0.010376	0.034485	-0.017548	0.2179	-0.033569	0.005646	-0.071106	-0.053406	-0.094757	-0.026093	0.007629	0.095215	-0.007019	-0.18372	0.017242	-0.001526	-0.015717
38.124	0.010529	0.38223	-0.03067	-0.01236	0.007172	0.017242	0.00351	0.005341	0.17609	-0.032501	0.002289	-0.006256	0.006104	-0.029449	0.006561	-0.010681	0.035248	-0.066986	-0.08606	0.018616	0.004425	-0.088654	0.005646	-0.042877	-0.023499	0.001831	0.089722	-0.005035	-0.067596	0.008392	-0.000305	-0.015717
38.125	0.013275	0.42725	0.005798	0.014801	0.027466	0.012512	0.003662	-0.001068	0.17609	-0.038605	0.007324	0.004425	0.029449	-0.048065	0.007782	-0.00351	0.019684	-0.10468	0.044861	-0.015106	0.005798	-0.10529	-0.10925	0.047913	0.14969	0.000458	-0.025482	-0.000153	-0.11978	-0.016632	-0.001831	-0.005798
38.126	0.00412	0.40283	0.000305	0.005341	0.010834	0.047302	0.017853	-0.000458	0.16068	-0.039673	0.013275	0.000916	0.006714	-0.04364	0.009766	-0.005035	0.009918	-0.0177	0.006866	-0.048676	-0.026093	-0.069733	-0.16068	0.1593	0.30151	0.008392	-0.037231	-0.005035	-0.017548	-0.036011	-0.005493	-0.004578
38.127	0.005341	0.42969	-0.078125	-0.012512	0.017395	0.067444	0.009155	0.010376	0.15717	-0.028381	0.015411	0.007324	0.015411	-0.04425	0.013428	-0.009766	0.019989	0.006104	-0.099792	-0.055237	-0.049591	-0.027466	-0.10757	0.072479	0.11231	0.000763	0.050812	-0.00885	-0.059052	-0.071106	-0.001221	-0.003357
38.128	-0.002899	0.40848	-0.087585	-0.03006	-0.009613	0.060883	-0.006409	0.009766	0.15533	-0.034332	0.006561	-0.003204	0.014496	-0.048828	0.017853	-0.007629	0.011749	-0.044556	-0.064545	-0.005035	0.090942	0.029755	-0.10574	0.088654	0.034637	0.001984	0.10346	-0.00885	-0.02533	-0.054169	-0.002441	-0.011139
38.129	-0.002136	0.35675	0.029602	-0.007629	-0.050507	-0.019836	0.001068	0.006714	0.15457	-0.039673	0.018768	-0.001221	-0.007477	-0.056458	0.011139	-0.00061	0.020599	-0.047607	-0.0914	0.010223	0.1828	-0.007324	-0.046844	0.023804	0.017853	-0.002441	0.050659	0.003204	0.066833	-0.037689	0.007629	-0.012817
38.13	0.000916	0.30441	0.11887	-0.029602	0.018616	-0.043488	-0.005035	0.00946	0.14908	-0.042572	-0.016785	0.002594	-0.02533	-0.028534	-0.005188	-0.009918	0.054932	0.005035	0.11215	-0.005798	0.10757	0.010223	-0.043945	-0.03067	0.012054	-0.019073	0.018311	-0.003357	0.076752	-0.072937	0.002136	-0.007782
38.131	0.044708	0.2533	0.13962	-0.033569	0.0177	-0.029449	-0.020447	0.000305	0.13275	-0.052795	-0.051727	0.00061	-0.040894	-0.053406	-0.016632	0.00061	0.030823	0.007629	0.089111	-0.023041	-0.15717	0.15106	-0.073242	0.016632	0.014801	-0.031433	-0.018158	0.001221	-0.05127	-0.009766	-0.001678	-0.013885
38.132	0.011749	0.21011	0.10071	-0.024261	0.036926	-0.029144	-0.014038	0.002136	0.13962	-0.046844	-0.033569	0.000153	-0.025024	-0.025787	0	0.002136	-0.006409	-0.14069	0.27252	0.062561	-0.39841	0.15976	-0.09491	0.048981	0.023346	-0.034637	-0.14816	-0.006409	0.017853	0.1413	-0.003662	-0.015259
38.133	0.015869	0.18417	0.075836	-0.002136	0.045013	-0.005798	-0.027008	0	0.13626	-0.050507	-0.014648	0.006104	-0.006561	-0.009308	-0.00351	-0.002289	-0.054474	-0.12726	0.21835	0.11841	-0.10223	0.007324	-0.059509	0.046082	-0.008087	-0.039215	-0.1268	0.003815	0.14816	0.26001	-0.002899	-0.014496
38.134	0.010529	0.20813	0.047455	-0.003967	0.020599	0.044708	-0.021057	0.006409	0.12177	-0.049286	-0.02182	0.00412	0.019684	-0.019531	0.039978	0.005646	-0.032806	-0.11353	0.11688	0.085907	0.10437	0.000916	-0.049286	0.068054	-0.007324	-0.019836	-0.022888	0.002136	-0.1506	0.20554	-0.005341	-0.01358
38.135	0.009308	0.2063	-0.012512	0.001526	-0.029297	0.081024	-0.013123	0.003815	0.11856	-0.035248	0.26428	-0.001068	0.003815	-0.0354	0.066833	0.00473	-0.020294	-0.14542	0.19318	0.069427	0.14908	0.010223	-0.023956	0.080109	0.000153	0.005035	0.016632	-0.005493	-0.10071	0.063782	0.00061	-0.002899
38.136	0.020905	0.21133	-0.02121	-0.003052	-0.045319	0.022583	-0.026855	0.010376	0.11475	-0.043182	0.28656	0.004578	-0.019531	-0.022125	0.036163	0.00351	-0.012665	-0.10178	0.11185	0.058899	0.15152	-0.001373	0.016479	0.015564	0.01236	0.002899	0.066833	0.014648	-0.24338	-0.089417	-0.003204	-0.015564
38.137	0.006104	0.19165	-0.06897	0.001984	-0.010834	-0.005493	-0.053864	0.002594	0.12146	-0.048218	0.22964	-0.002289	-0.016632	-0.030823	0.031128	-0.003967	-0.00412	-0.1178	-0.01236	-0.008087	0.063324	0.007782	0.030518	0.003357	0.011749	0.006714	0.088654	-0.00824	-0.38879	-0.14038	0.00061	-0.012665
38.138	0.014648	0.16266	-0.043335	0.000916	-0.005798	-0.028534	-0.036469	-0.005951	0.12787	-0.046234	-0.091705	-0.000458	0.022583	-0.013275	0.00885	0.004578	0.009613	-0.10605	0.090332	-0.068665	0.020142	0.00351	0.004425	0.006714	0.014648	0.027771	0.030975	0.007172	-0.29648	-0.067596	-0.000458	-0.0177
38.139	0.018158	0.15503	-0.030518	-0.008087	0.005798	-0.015869	-0.045319	0.002289	0.12207	-0.025635	0.037231	0.002441	0.009155	-0.028381	0.024414	0.000916	-0.002289	-0.13382	0.1004	-0.05722	0.024261	0.052032	0.068054	-0.037079	0.013733	0.017395	0.056458	0.001831	0.61798	-0.03891	0.000458	-0.014038
38.14	0.007629	0.15381	-0.056305	-0.007019	0.011292	0.009003	-0.020752	-0.004883	0.1178	-0.027466	-0.047302	-0.002441	0.021667	-0.029602	-0.026245	-0.005646	0.000763	-0.099945	0.046082	-0.019226	0.014954	0.029907	0.088501	-0.028534	-0.009155	0.005493	0.21194	0.005035	0.21454	-0.10834	-0.002136	-0.005035
38.141	0.005646	0.16327	-0.070648	-0.014343	-0.016785	-0.041504	-0.02533	-0.001221	0.097809	-0.020905	-0.1178	-0.002594	-0.002441	-0.049286	-0.046387	0.001221	0.00946	-0.080261	-0.10651	0.072937	0.019226	0.013428	0.082397	-0.04715	-0.037384	-0.004578	0.30914	-0.000153	-0.35126	-0.20691	-0.001984	-0.005341
